<svg width="1949" height="214" viewBox="0 0 1949 214" fill="none" xmlns="http://www.w3.org/2000/svg">
<path d="M1.79178 165.165C0.781478 166.017 0.150301 167.237 0.0353083 168.556C-0.0795803 169.874 0.33113 171.183 1.17888 172.197C2.02664 173.21 3.24251 173.845 4.56082 173.965C5.87902 174.085 7.19168 173.679 8.20822 172.835C8.20822 172.835 8.20822 172.835 8.20822 172.835C36.4116 150.513 67.9059 131.224 100.545 115.341C196.575 65.6759 324.863 57.8897 404.009 137.845C445.438 175.32 498.417 218.723 561.688 203.74C622.182 188.135 654.665 125.84 707.478 121.335C776.311 111.404 826.306 180.347 904.165 177.601C967.418 176.119 1012.54 129.096 1051.34 90.0144C1088.87 52.6111 1134.99 -2.68233 1180.34 28.3644C1320.35 94.0394 1484.15 68.438 1588.56 177.229C1588.94 177.606 1589.33 177.98 1589.72 178.351C1608.77 196.367 1633.52 214.407 1664.72 212.926C1695.97 210.958 1718.63 189.855 1735.6 170.405C1752.84 150.372 1766.47 128.502 1780.55 108.251C1787.57 98.2406 1794.87 88.1179 1802.53 81.2805C1806.19 77.9427 1810.09 76.1651 1811.22 76.3456C1812.14 76.2678 1814.34 77.0359 1817.57 80.7618C1821.56 85.3469 1825.63 89.6887 1829.95 93.9418C1857.96 121.048 1892.17 142.628 1935.5 146C1938.95 146.013 1942.25 144.654 1944.69 142.216C1947.13 139.778 1948.5 136.461 1948.5 133C1948.5 129.54 1947.13 126.222 1944.69 123.784C1942.25 121.346 1938.95 119.987 1935.5 120C1935.5 120 1935.5 120 1935.5 120C1904.96 117.947 1871.83 99.8131 1847.57 75.9275C1843.71 72.1775 1840.04 68.328 1836.43 64.2381C1831.06 58.1315 1822.48 51.0944 1810.52 51.4162C1798.93 52.0026 1791.6 57.9887 1786.08 62.7211C1774.95 72.9728 1767.77 83.7371 1760.38 94.3031C1745.98 115.398 1732.89 136.56 1717.4 154.797C1702.12 172.861 1683.48 188.444 1663.34 189.534C1643.21 190.973 1622.71 178.085 1605.49 161.765C1605.14 161.437 1604.79 161.106 1604.44 160.771C1491.1 45.5122 1316.04 71.3433 1190.66 11.6354C1163.93 -7.45034 1124.09 0.198744 1101.26 18.3675C1076.81 35.7222 1057.77 57.0436 1038.12 77.1657C999.831 116.766 957.432 159.221 903.835 160.4C837.569 165.719 783.547 95.825 706.522 105.665C640.467 114.459 611.314 177.271 558.077 189.743C504.969 203.539 453.704 164.994 412.991 128.155C328.798 44.1802 192.804 54.1658 95.8063 105.636C62.4866 122.178 30.9361 141.757 1.79178 165.165Z" fill="black"/>
</svg>
