{
  "accessors": [
    {
      "bufferView": 2,
      "componentType": 5126,
      "count": 300,
      "max": [
        0.2996399998664856,
        2.54475998878479,
        3.0999999046325684
      ],
      "min": [
        -0.27656999230384827,
        -2.756959915161133,
        -3.0999999046325684
      ],
      "type": "VEC3"
    },
    {
      "bufferView": 2,
      "byteOffset": 3600,
      "componentType": 5126,
      "count": 300,
      "max": [
        0.9999806880950928,
        0.9999943971633911,
        1.0
      ],
      "min": [
        -0.999980092048645,
        -0.9999943971633911,
        -1.0
      ],
      "type": "VEC3"
    },
    {
      "bufferView": 3,
      "componentType": 5126,
      "count": 300,
      "max": [
        0.9749465584754944,
        1.0,
        0.887755274772644,
        1.0
      ],
      "min": [
        -0.977709949016571,
        -0.9972826838493347,
        -0.9999974966049194,
        1.0
      ],
      "type": "VEC4"
    },
    {
      "bufferView": 1,
      "componentType": 5126,
      "count": 300,
      "max": [
        0.9927700161933899,
        0.9899399876594543
      ],
      "min": [
        0.008030000142753124,
        0.1900400072336197
      ],
      "type": "VEC2"
    },
    {
      "bufferView": 0,
      "componentType": 5125,
      "count": 696,
      "type": "SCALAR"
    }
  ],
  "asset": {
    "extras": {
      "author": "adam127 (https://sketchfab.com/adam127)",
      "license": "CC-BY-4.0 (http://creativecommons.org/licenses/by/4.0/)",
      "source": "https://sketchfab.com/3d-models/wanted-table-3fe738210e2a4562b7e3981ccec206e0",
      "title": "Wanted Table"
    },
    "generator": "Sketchfab-12.64.0",
    "version": "2.0"
  },
  "bufferViews": [
    {
      "buffer": 0,
      "byteLength": 2784,
      "name": "floatBufferViews",
      "target": 34963
    },
    {
      "buffer": 0,
      "byteLength": 2400,
      "byteOffset": 2784,
      "byteStride": 8,
      "name": "floatBufferViews",
      "target": 34962
    },
    {
      "buffer": 0,
      "byteLength": 7200,
      "byteOffset": 5184,
      "byteStride": 12,
      "name": "floatBufferViews",
      "target": 34962
    },
    {
      "buffer": 0,
      "byteLength": 4800,
      "byteOffset": 12384,
      "byteStride": 16,
      "name": "floatBufferViews",
      "target": 34962
    }
  ],
  "buffers": [
    {
      "byteLength": 17184,
      "uri": "scene.bin"
    }
  ],
  "images": [
    {
      "uri": "textures/wanted_table_baseColor.png"
    },
    {
      "uri": "textures/wanted_table_normal.png"
    }
  ],
  "materials": [
    {
      "doubleSided": true,
      "name": "wanted_table",
      "normalTexture": {
        "index": 1
      },
      "pbrMetallicRoughness": {
        "baseColorTexture": {
          "index": 0
        },
        "metallicFactor": 0.0,
        "roughnessFactor": 0.6
      }
    }
  ],
  "meshes": [
    {
      "name": "wanted table_0",
      "primitives": [
        {
          "attributes": {
            "NORMAL": 1,
            "POSITION": 0,
            "TANGENT": 2,
            "TEXCOORD_0": 3
          },
          "indices": 4,
          "material": 0,
          "mode": 4
        }
      ]
    }
  ],
  "nodes": [
    {
      "children": [
        1
      ],
      "matrix": [
        1.0,
        0.0,
        0.0,
        0.0,
        0.0,
        2.220446049250313e-16,
        -1.0,
        0.0,
        0.0,
        1.0,
        2.220446049250313e-16,
        0.0,
        0.0,
        0.0,
        0.0,
        1.0
      ],
      "name": "Sketchfab_model"
    },
    {
      "children": [
        2,
        4
      ],
      "name": "Root"
    },
    {
      "children": [
        3
      ],
      "name": "wanted table"
    },
    {
      "mesh": 0,
      "name": "wanted table_0"
    },
    {
      "children": [
        5
      ],
      "matrix": [
        0.6093900000000001,
        -0.11864000000000002,
        -0.7839400000000001,
        0.0,
        0.6402400000000001,
        0.6568600000000001,
        0.3982800000000001,
        0.0,
        0.46769,
        -0.7446200000000002,
        0.47624,
        0.0,
        7.094729999999999,
        1.8648500000000001,
        6.163399999999999,
        1.0
      ],
      "name": "Point"
    },
    {
      "name": "Point"
    }
  ],
  "samplers": [
    {
      "magFilter": 9729,
      "minFilter": 9987,
      "wrapS": 10497,
      "wrapT": 10497
    }
  ],
  "scene": 0,
  "scenes": [
    {
      "name": "Sketchfab_Scene",
      "nodes": [
        0
      ]
    }
  ],
  "textures": [
    {
      "sampler": 0,
      "source": 0
    },
    {
      "sampler": 0,
      "source": 1
    }
  ]
}
